<svg xmlns="http://www.w3.org/2000/svg" xmlns:xlink="http://www.w3.org/1999/xlink" width="500" zoomAndPan="magnify"
    viewBox="0 0 375 374.999991" height="500" preserveAspectRatio="xMidYMid meet" version="1.0">
    <defs>
        <g />
        <clipPath id="d49f38282f">
            <path d="M 181 95 L 198 95 L 198 111 L 181 111 Z M 181 95 " clip-rule="nonzero" />
        </clipPath>
        <clipPath id="4a2c75ce8c">
            <path
                d="M 141.5625 77.742188 L 250.304688 76.429688 L 251.835938 203.171875 L 143.09375 204.484375 Z M 141.5625 77.742188 "
                clip-rule="nonzero" />
        </clipPath>
        <clipPath id="df47a43566">
            <path
                d="M 142.214844 131.914062 L 142.433594 149.917969 C 142.609375 164.285156 148.480469 177.996094 158.761719 188.03125 C 169.042969 198.066406 182.890625 203.609375 197.257812 203.433594 C 211.625 203.261719 225.335938 197.386719 235.371094 187.105469 C 245.410156 176.824219 250.949219 162.976562 250.777344 148.609375 L 250.558594 130.605469 C 250.386719 116.238281 244.511719 102.527344 234.230469 92.492188 C 223.949219 82.457031 210.101562 76.914062 195.734375 77.089844 C 181.367188 77.261719 167.65625 83.136719 157.621094 93.417969 C 147.582031 103.699219 142.042969 117.546875 142.214844 131.914062 Z M 142.214844 131.914062 "
                clip-rule="nonzero" />
        </clipPath>
        <clipPath id="4ef5bd980d">
            <path
                d="M 141.5625 77.742188 L 249.554688 76.4375 L 251.078125 202.429688 L 143.085938 203.734375 Z M 141.5625 77.742188 "
                clip-rule="nonzero" />
        </clipPath>
        <clipPath id="e393966eb5">
            <path
                d="M 249.894531 76.433594 L 141.902344 77.738281 L 143.425781 203.730469 L 251.417969 202.425781 Z M 249.894531 76.433594 "
                clip-rule="nonzero" />
        </clipPath>
        <clipPath id="788774bf9f">
            <path d="M 176 85 L 189 85 L 189 99 L 176 99 Z M 176 85 " clip-rule="nonzero" />
        </clipPath>
        <clipPath id="1b2fee40cb">
            <path
                d="M 141.5625 77.742188 L 250.304688 76.429688 L 251.835938 203.171875 L 143.09375 204.484375 Z M 141.5625 77.742188 "
                clip-rule="nonzero" />
        </clipPath>
        <clipPath id="3ce01d068c">
            <path
                d="M 142.214844 131.914062 L 142.433594 149.917969 C 142.609375 164.285156 148.480469 177.996094 158.761719 188.03125 C 169.042969 198.066406 182.890625 203.609375 197.257812 203.433594 C 211.625 203.261719 225.335938 197.386719 235.371094 187.105469 C 245.410156 176.824219 250.949219 162.976562 250.777344 148.609375 L 250.558594 130.605469 C 250.386719 116.238281 244.511719 102.527344 234.230469 92.492188 C 223.949219 82.457031 210.101562 76.914062 195.734375 77.089844 C 181.367188 77.261719 167.65625 83.136719 157.621094 93.417969 C 147.582031 103.699219 142.042969 117.546875 142.214844 131.914062 Z M 142.214844 131.914062 "
                clip-rule="nonzero" />
        </clipPath>
        <clipPath id="941d59674c">
            <path
                d="M 141.5625 77.742188 L 249.554688 76.4375 L 251.078125 202.429688 L 143.085938 203.734375 Z M 141.5625 77.742188 "
                clip-rule="nonzero" />
        </clipPath>
        <clipPath id="a1a49a74f8">
            <path
                d="M 249.894531 76.433594 L 141.902344 77.738281 L 143.425781 203.730469 L 251.417969 202.425781 Z M 249.894531 76.433594 "
                clip-rule="nonzero" />
        </clipPath>
        <clipPath id="b82509406b">
            <path d="M 182 168 L 199 168 L 199 184 L 182 184 Z M 182 168 " clip-rule="nonzero" />
        </clipPath>
        <clipPath id="769f131ae0">
            <path
                d="M 141.5625 77.742188 L 250.304688 76.429688 L 251.835938 203.171875 L 143.09375 204.484375 Z M 141.5625 77.742188 "
                clip-rule="nonzero" />
        </clipPath>
        <clipPath id="47a66d65ca">
            <path
                d="M 142.214844 131.914062 L 142.433594 149.917969 C 142.609375 164.285156 148.480469 177.996094 158.761719 188.03125 C 169.042969 198.066406 182.890625 203.609375 197.257812 203.433594 C 211.625 203.261719 225.335938 197.386719 235.371094 187.105469 C 245.410156 176.824219 250.949219 162.976562 250.777344 148.609375 L 250.558594 130.605469 C 250.386719 116.238281 244.511719 102.527344 234.230469 92.492188 C 223.949219 82.457031 210.101562 76.914062 195.734375 77.089844 C 181.367188 77.261719 167.65625 83.136719 157.621094 93.417969 C 147.582031 103.699219 142.042969 117.546875 142.214844 131.914062 Z M 142.214844 131.914062 "
                clip-rule="nonzero" />
        </clipPath>
        <clipPath id="1b6415c493">
            <path
                d="M 141.5625 77.742188 L 249.554688 76.4375 L 251.078125 202.429688 L 143.085938 203.734375 Z M 141.5625 77.742188 "
                clip-rule="nonzero" />
        </clipPath>
        <clipPath id="fc569e3bc7">
            <path
                d="M 249.894531 76.433594 L 141.902344 77.738281 L 143.425781 203.730469 L 251.417969 202.425781 Z M 249.894531 76.433594 "
                clip-rule="nonzero" />
        </clipPath>
        <clipPath id="e821880454">
            <path d="M 177 180 L 191 180 L 191 194 L 177 194 Z M 177 180 " clip-rule="nonzero" />
        </clipPath>
        <clipPath id="c0492ab85f">
            <path
                d="M 141.5625 77.742188 L 250.304688 76.429688 L 251.835938 203.171875 L 143.09375 204.484375 Z M 141.5625 77.742188 "
                clip-rule="nonzero" />
        </clipPath>
        <clipPath id="147fbd8727">
            <path
                d="M 142.214844 131.914062 L 142.433594 149.917969 C 142.609375 164.285156 148.480469 177.996094 158.761719 188.03125 C 169.042969 198.066406 182.890625 203.609375 197.257812 203.433594 C 211.625 203.261719 225.335938 197.386719 235.371094 187.105469 C 245.410156 176.824219 250.949219 162.976562 250.777344 148.609375 L 250.558594 130.605469 C 250.386719 116.238281 244.511719 102.527344 234.230469 92.492188 C 223.949219 82.457031 210.101562 76.914062 195.734375 77.089844 C 181.367188 77.261719 167.65625 83.136719 157.621094 93.417969 C 147.582031 103.699219 142.042969 117.546875 142.214844 131.914062 Z M 142.214844 131.914062 "
                clip-rule="nonzero" />
        </clipPath>
        <clipPath id="0b3d9d4a0e">
            <path
                d="M 141.5625 77.742188 L 249.554688 76.4375 L 251.078125 202.429688 L 143.085938 203.734375 Z M 141.5625 77.742188 "
                clip-rule="nonzero" />
        </clipPath>
        <clipPath id="d202ddfca2">
            <path
                d="M 249.894531 76.433594 L 141.902344 77.738281 L 143.425781 203.730469 L 251.417969 202.425781 Z M 249.894531 76.433594 "
                clip-rule="nonzero" />
        </clipPath>
        <clipPath id="561e6e8d3f">
            <path d="M 168 116 L 198 116 L 198 129 L 168 129 Z M 168 116 " clip-rule="nonzero" />
        </clipPath>
        <clipPath id="7c2e1949eb">
            <path
                d="M 141.5625 77.742188 L 250.304688 76.429688 L 251.835938 203.171875 L 143.09375 204.484375 Z M 141.5625 77.742188 "
                clip-rule="nonzero" />
        </clipPath>
        <clipPath id="07d648b240">
            <path
                d="M 142.214844 131.914062 L 142.433594 149.917969 C 142.609375 164.285156 148.480469 177.996094 158.761719 188.03125 C 169.042969 198.066406 182.890625 203.609375 197.257812 203.433594 C 211.625 203.261719 225.335938 197.386719 235.371094 187.105469 C 245.410156 176.824219 250.949219 162.976562 250.777344 148.609375 L 250.558594 130.605469 C 250.386719 116.238281 244.511719 102.527344 234.230469 92.492188 C 223.949219 82.457031 210.101562 76.914062 195.734375 77.089844 C 181.367188 77.261719 167.65625 83.136719 157.621094 93.417969 C 147.582031 103.699219 142.042969 117.546875 142.214844 131.914062 Z M 142.214844 131.914062 "
                clip-rule="nonzero" />
        </clipPath>
        <clipPath id="fdbd522a86">
            <path
                d="M 141.5625 77.742188 L 249.554688 76.4375 L 251.078125 202.429688 L 143.085938 203.734375 Z M 141.5625 77.742188 "
                clip-rule="nonzero" />
        </clipPath>
        <clipPath id="005f426637">
            <path
                d="M 249.894531 76.433594 L 141.902344 77.738281 L 143.425781 203.730469 L 251.417969 202.425781 Z M 249.894531 76.433594 "
                clip-rule="nonzero" />
        </clipPath>
        <clipPath id="4e29d59560">
            <path d="M 169 152 L 199 152 L 199 165 L 169 165 Z M 169 152 " clip-rule="nonzero" />
        </clipPath>
        <clipPath id="0e09c57617">
            <path
                d="M 141.5625 77.742188 L 250.304688 76.429688 L 251.835938 203.171875 L 143.09375 204.484375 Z M 141.5625 77.742188 "
                clip-rule="nonzero" />
        </clipPath>
        <clipPath id="9ee6a790b1">
            <path
                d="M 142.214844 131.914062 L 142.433594 149.917969 C 142.609375 164.285156 148.480469 177.996094 158.761719 188.03125 C 169.042969 198.066406 182.890625 203.609375 197.257812 203.433594 C 211.625 203.261719 225.335938 197.386719 235.371094 187.105469 C 245.410156 176.824219 250.949219 162.976562 250.777344 148.609375 L 250.558594 130.605469 C 250.386719 116.238281 244.511719 102.527344 234.230469 92.492188 C 223.949219 82.457031 210.101562 76.914062 195.734375 77.089844 C 181.367188 77.261719 167.65625 83.136719 157.621094 93.417969 C 147.582031 103.699219 142.042969 117.546875 142.214844 131.914062 Z M 142.214844 131.914062 "
                clip-rule="nonzero" />
        </clipPath>
        <clipPath id="e7c4aa7480">
            <path
                d="M 141.5625 77.742188 L 249.554688 76.4375 L 251.078125 202.429688 L 143.085938 203.734375 Z M 141.5625 77.742188 "
                clip-rule="nonzero" />
        </clipPath>
        <clipPath id="2f21794f66">
            <path
                d="M 249.894531 76.433594 L 141.902344 77.738281 L 143.425781 203.730469 L 251.417969 202.425781 Z M 249.894531 76.433594 "
                clip-rule="nonzero" />
        </clipPath>
        <clipPath id="fa885d5ba6">
            <path d="M 159 112 L 172 112 L 172 125 L 159 125 Z M 159 112 " clip-rule="nonzero" />
        </clipPath>
        <clipPath id="312849899e">
            <path
                d="M 141.5625 77.742188 L 250.304688 76.429688 L 251.835938 203.171875 L 143.09375 204.484375 Z M 141.5625 77.742188 "
                clip-rule="nonzero" />
        </clipPath>
        <clipPath id="b6515590f9">
            <path
                d="M 142.214844 131.914062 L 142.433594 149.917969 C 142.609375 164.285156 148.480469 177.996094 158.761719 188.03125 C 169.042969 198.066406 182.890625 203.609375 197.257812 203.433594 C 211.625 203.261719 225.335938 197.386719 235.371094 187.105469 C 245.410156 176.824219 250.949219 162.976562 250.777344 148.609375 L 250.558594 130.605469 C 250.386719 116.238281 244.511719 102.527344 234.230469 92.492188 C 223.949219 82.457031 210.101562 76.914062 195.734375 77.089844 C 181.367188 77.261719 167.65625 83.136719 157.621094 93.417969 C 147.582031 103.699219 142.042969 117.546875 142.214844 131.914062 Z M 142.214844 131.914062 "
                clip-rule="nonzero" />
        </clipPath>
        <clipPath id="8399878449">
            <path
                d="M 141.5625 77.742188 L 249.554688 76.4375 L 251.078125 202.429688 L 143.085938 203.734375 Z M 141.5625 77.742188 "
                clip-rule="nonzero" />
        </clipPath>
        <clipPath id="12e36461fd">
            <path
                d="M 249.894531 76.433594 L 141.902344 77.738281 L 143.425781 203.730469 L 251.417969 202.425781 Z M 249.894531 76.433594 "
                clip-rule="nonzero" />
        </clipPath>
        <clipPath id="32e63580cf">
            <path d="M 159 156 L 173 156 L 173 169 L 159 169 Z M 159 156 " clip-rule="nonzero" />
        </clipPath>
        <clipPath id="88b74fe5dc">
            <path
                d="M 141.5625 77.742188 L 250.304688 76.429688 L 251.835938 203.171875 L 143.09375 204.484375 Z M 141.5625 77.742188 "
                clip-rule="nonzero" />
        </clipPath>
        <clipPath id="c703497825">
            <path
                d="M 142.214844 131.914062 L 142.433594 149.917969 C 142.609375 164.285156 148.480469 177.996094 158.761719 188.03125 C 169.042969 198.066406 182.890625 203.609375 197.257812 203.433594 C 211.625 203.261719 225.335938 197.386719 235.371094 187.105469 C 245.410156 176.824219 250.949219 162.976562 250.777344 148.609375 L 250.558594 130.605469 C 250.386719 116.238281 244.511719 102.527344 234.230469 92.492188 C 223.949219 82.457031 210.101562 76.914062 195.734375 77.089844 C 181.367188 77.261719 167.65625 83.136719 157.621094 93.417969 C 147.582031 103.699219 142.042969 117.546875 142.214844 131.914062 Z M 142.214844 131.914062 "
                clip-rule="nonzero" />
        </clipPath>
        <clipPath id="7740f02e9a">
            <path
                d="M 141.5625 77.742188 L 249.554688 76.4375 L 251.078125 202.429688 L 143.085938 203.734375 Z M 141.5625 77.742188 "
                clip-rule="nonzero" />
        </clipPath>
        <clipPath id="03a6b14bdc">
            <path
                d="M 249.894531 76.433594 L 141.902344 77.738281 L 143.425781 203.730469 L 251.417969 202.425781 Z M 249.894531 76.433594 "
                clip-rule="nonzero" />
        </clipPath>
        <clipPath id="1943ea2a8e">
            <path d="M 151 126 L 198 126 L 198 137 L 151 137 Z M 151 126 " clip-rule="nonzero" />
        </clipPath>
        <clipPath id="064b693461">
            <path
                d="M 141.5625 77.742188 L 250.304688 76.429688 L 251.835938 203.171875 L 143.09375 204.484375 Z M 141.5625 77.742188 "
                clip-rule="nonzero" />
        </clipPath>
        <clipPath id="699ee58266">
            <path
                d="M 142.214844 131.914062 L 142.433594 149.917969 C 142.609375 164.285156 148.480469 177.996094 158.761719 188.03125 C 169.042969 198.066406 182.890625 203.609375 197.257812 203.433594 C 211.625 203.261719 225.335938 197.386719 235.371094 187.105469 C 245.410156 176.824219 250.949219 162.976562 250.777344 148.609375 L 250.558594 130.605469 C 250.386719 116.238281 244.511719 102.527344 234.230469 92.492188 C 223.949219 82.457031 210.101562 76.914062 195.734375 77.089844 C 181.367188 77.261719 167.65625 83.136719 157.621094 93.417969 C 147.582031 103.699219 142.042969 117.546875 142.214844 131.914062 Z M 142.214844 131.914062 "
                clip-rule="nonzero" />
        </clipPath>
        <clipPath id="bc60187321">
            <path
                d="M 141.5625 77.742188 L 249.554688 76.4375 L 251.078125 202.429688 L 143.085938 203.734375 Z M 141.5625 77.742188 "
                clip-rule="nonzero" />
        </clipPath>
        <clipPath id="1d0f342402">
            <path
                d="M 249.894531 76.433594 L 141.902344 77.738281 L 143.425781 203.730469 L 251.417969 202.425781 Z M 249.894531 76.433594 "
                clip-rule="nonzero" />
        </clipPath>
        <clipPath id="445f12b464">
            <path d="M 151 144 L 198 144 L 198 156 L 151 156 Z M 151 144 " clip-rule="nonzero" />
        </clipPath>
        <clipPath id="66c38ef115">
            <path
                d="M 141.5625 77.742188 L 250.304688 76.429688 L 251.835938 203.171875 L 143.09375 204.484375 Z M 141.5625 77.742188 "
                clip-rule="nonzero" />
        </clipPath>
        <clipPath id="1ea388d953">
            <path
                d="M 142.214844 131.914062 L 142.433594 149.917969 C 142.609375 164.285156 148.480469 177.996094 158.761719 188.03125 C 169.042969 198.066406 182.890625 203.609375 197.257812 203.433594 C 211.625 203.261719 225.335938 197.386719 235.371094 187.105469 C 245.410156 176.824219 250.949219 162.976562 250.777344 148.609375 L 250.558594 130.605469 C 250.386719 116.238281 244.511719 102.527344 234.230469 92.492188 C 223.949219 82.457031 210.101562 76.914062 195.734375 77.089844 C 181.367188 77.261719 167.65625 83.136719 157.621094 93.417969 C 147.582031 103.699219 142.042969 117.546875 142.214844 131.914062 Z M 142.214844 131.914062 "
                clip-rule="nonzero" />
        </clipPath>
        <clipPath id="290a09626d">
            <path
                d="M 141.5625 77.742188 L 249.554688 76.4375 L 251.078125 202.429688 L 143.085938 203.734375 Z M 141.5625 77.742188 "
                clip-rule="nonzero" />
        </clipPath>
        <clipPath id="f3f0570d72">
            <path
                d="M 249.894531 76.433594 L 141.902344 77.738281 L 143.425781 203.730469 L 251.417969 202.425781 Z M 249.894531 76.433594 "
                clip-rule="nonzero" />
        </clipPath>
        <clipPath id="df806f419c">
            <path d="M 142 119 L 156 119 L 156 132 L 142 132 Z M 142 119 " clip-rule="nonzero" />
        </clipPath>
        <clipPath id="ac25c247fe">
            <path
                d="M 141.5625 77.742188 L 250.304688 76.429688 L 251.835938 203.171875 L 143.09375 204.484375 Z M 141.5625 77.742188 "
                clip-rule="nonzero" />
        </clipPath>
        <clipPath id="a87794392f">
            <path
                d="M 142.214844 131.914062 L 142.433594 149.917969 C 142.609375 164.285156 148.480469 177.996094 158.761719 188.03125 C 169.042969 198.066406 182.890625 203.609375 197.257812 203.433594 C 211.625 203.261719 225.335938 197.386719 235.371094 187.105469 C 245.410156 176.824219 250.949219 162.976562 250.777344 148.609375 L 250.558594 130.605469 C 250.386719 116.238281 244.511719 102.527344 234.230469 92.492188 C 223.949219 82.457031 210.101562 76.914062 195.734375 77.089844 C 181.367188 77.261719 167.65625 83.136719 157.621094 93.417969 C 147.582031 103.699219 142.042969 117.546875 142.214844 131.914062 Z M 142.214844 131.914062 "
                clip-rule="nonzero" />
        </clipPath>
        <clipPath id="57a02d63a5">
            <path
                d="M 141.5625 77.742188 L 249.554688 76.4375 L 251.078125 202.429688 L 143.085938 203.734375 Z M 141.5625 77.742188 "
                clip-rule="nonzero" />
        </clipPath>
        <clipPath id="e97fcad26e">
            <path
                d="M 249.894531 76.433594 L 141.902344 77.738281 L 143.425781 203.730469 L 251.417969 202.425781 Z M 249.894531 76.433594 "
                clip-rule="nonzero" />
        </clipPath>
        <clipPath id="20421f4147">
            <path d="M 143 150 L 156 150 L 156 163 L 143 163 Z M 143 150 " clip-rule="nonzero" />
        </clipPath>
        <clipPath id="50899495a4">
            <path
                d="M 141.5625 77.742188 L 250.304688 76.429688 L 251.835938 203.171875 L 143.09375 204.484375 Z M 141.5625 77.742188 "
                clip-rule="nonzero" />
        </clipPath>
        <clipPath id="9328baaafc">
            <path
                d="M 142.214844 131.914062 L 142.433594 149.917969 C 142.609375 164.285156 148.480469 177.996094 158.761719 188.03125 C 169.042969 198.066406 182.890625 203.609375 197.257812 203.433594 C 211.625 203.261719 225.335938 197.386719 235.371094 187.105469 C 245.410156 176.824219 250.949219 162.976562 250.777344 148.609375 L 250.558594 130.605469 C 250.386719 116.238281 244.511719 102.527344 234.230469 92.492188 C 223.949219 82.457031 210.101562 76.914062 195.734375 77.089844 C 181.367188 77.261719 167.65625 83.136719 157.621094 93.417969 C 147.582031 103.699219 142.042969 117.546875 142.214844 131.914062 Z M 142.214844 131.914062 "
                clip-rule="nonzero" />
        </clipPath>
        <clipPath id="ea9bafa33a">
            <path
                d="M 141.5625 77.742188 L 249.554688 76.4375 L 251.078125 202.429688 L 143.085938 203.734375 Z M 141.5625 77.742188 "
                clip-rule="nonzero" />
        </clipPath>
        <clipPath id="106ea67af9">
            <path
                d="M 249.894531 76.433594 L 141.902344 77.738281 L 143.425781 203.730469 L 251.417969 202.425781 Z M 249.894531 76.433594 "
                clip-rule="nonzero" />
        </clipPath>
        <clipPath id="d7b7d3f97c">
            <path d="M 194 77 L 247 77 L 247 202 L 194 202 Z M 194 77 " clip-rule="nonzero" />
        </clipPath>
        <clipPath id="2c5a7befde">
            <path
                d="M 141.5625 77.742188 L 250.304688 76.429688 L 251.835938 203.171875 L 143.09375 204.484375 Z M 141.5625 77.742188 "
                clip-rule="nonzero" />
        </clipPath>
        <clipPath id="b3582e1b65">
            <path
                d="M 142.214844 131.914062 L 142.433594 149.917969 C 142.609375 164.285156 148.480469 177.996094 158.761719 188.03125 C 169.042969 198.066406 182.890625 203.609375 197.257812 203.433594 C 211.625 203.261719 225.335938 197.386719 235.371094 187.105469 C 245.410156 176.824219 250.949219 162.976562 250.777344 148.609375 L 250.558594 130.605469 C 250.386719 116.238281 244.511719 102.527344 234.230469 92.492188 C 223.949219 82.457031 210.101562 76.914062 195.734375 77.089844 C 181.367188 77.261719 167.65625 83.136719 157.621094 93.417969 C 147.582031 103.699219 142.042969 117.546875 142.214844 131.914062 Z M 142.214844 131.914062 "
                clip-rule="nonzero" />
        </clipPath>
        <clipPath id="5a52f9df6b">
            <path
                d="M 141.5625 77.742188 L 249.554688 76.4375 L 251.078125 202.429688 L 143.085938 203.734375 Z M 141.5625 77.742188 "
                clip-rule="nonzero" />
        </clipPath>
        <clipPath id="48188662f7">
            <path
                d="M 249.894531 76.433594 L 141.902344 77.738281 L 143.425781 203.730469 L 251.417969 202.425781 Z M 249.894531 76.433594 "
                clip-rule="nonzero" />
        </clipPath>
        <clipPath id="1d02ce66c8">
            <path d="M 194 77 L 199 77 L 199 200 L 194 200 Z M 194 77 " clip-rule="nonzero" />
        </clipPath>
        <clipPath id="11b1a2ea74">
            <path
                d="M 141.5625 77.742188 L 250.304688 76.429688 L 251.835938 203.171875 L 143.09375 204.484375 Z M 141.5625 77.742188 "
                clip-rule="nonzero" />
        </clipPath>
        <clipPath id="2d787b8d34">
            <path
                d="M 142.214844 131.914062 L 142.433594 149.917969 C 142.609375 164.285156 148.480469 177.996094 158.761719 188.03125 C 169.042969 198.066406 182.890625 203.609375 197.257812 203.433594 C 211.625 203.261719 225.335938 197.386719 235.371094 187.105469 C 245.410156 176.824219 250.949219 162.976562 250.777344 148.609375 L 250.558594 130.605469 C 250.386719 116.238281 244.511719 102.527344 234.230469 92.492188 C 223.949219 82.457031 210.101562 76.914062 195.734375 77.089844 C 181.367188 77.261719 167.65625 83.136719 157.621094 93.417969 C 147.582031 103.699219 142.042969 117.546875 142.214844 131.914062 Z M 142.214844 131.914062 "
                clip-rule="nonzero" />
        </clipPath>
        <clipPath id="3c4b4f04ee">
            <path
                d="M 141.5625 77.742188 L 249.554688 76.4375 L 251.078125 202.429688 L 143.085938 203.734375 Z M 141.5625 77.742188 "
                clip-rule="nonzero" />
        </clipPath>
        <clipPath id="0d91e72797">
            <path
                d="M 249.894531 76.433594 L 141.902344 77.738281 L 143.425781 203.730469 L 251.417969 202.425781 Z M 249.894531 76.433594 "
                clip-rule="nonzero" />
        </clipPath>
        <clipPath id="0073525118">
            <path d="M 210 107 L 235 107 L 235 119 L 210 119 Z M 210 107 " clip-rule="nonzero" />
        </clipPath>
        <clipPath id="d6b69e1efe">
            <path
                d="M 141.5625 77.742188 L 250.304688 76.429688 L 251.835938 203.171875 L 143.09375 204.484375 Z M 141.5625 77.742188 "
                clip-rule="nonzero" />
        </clipPath>
        <clipPath id="0985cdfdc1">
            <path
                d="M 142.214844 131.914062 L 142.433594 149.917969 C 142.609375 164.285156 148.480469 177.996094 158.761719 188.03125 C 169.042969 198.066406 182.890625 203.609375 197.257812 203.433594 C 211.625 203.261719 225.335938 197.386719 235.371094 187.105469 C 245.410156 176.824219 250.949219 162.976562 250.777344 148.609375 L 250.558594 130.605469 C 250.386719 116.238281 244.511719 102.527344 234.230469 92.492188 C 223.949219 82.457031 210.101562 76.914062 195.734375 77.089844 C 181.367188 77.261719 167.65625 83.136719 157.621094 93.417969 C 147.582031 103.699219 142.042969 117.546875 142.214844 131.914062 Z M 142.214844 131.914062 "
                clip-rule="nonzero" />
        </clipPath>
        <clipPath id="70ce646cc3">
            <path
                d="M 141.5625 77.742188 L 249.554688 76.4375 L 251.078125 202.429688 L 143.085938 203.734375 Z M 141.5625 77.742188 "
                clip-rule="nonzero" />
        </clipPath>
        <clipPath id="085f351507">
            <path
                d="M 249.894531 76.433594 L 141.902344 77.738281 L 143.425781 203.730469 L 251.417969 202.425781 Z M 249.894531 76.433594 "
                clip-rule="nonzero" />
        </clipPath>
        <clipPath id="297d17ac48">
            <path d="M 216 114 L 228 114 L 228 132 L 216 132 Z M 216 114 " clip-rule="nonzero" />
        </clipPath>
        <clipPath id="b2c7ec9f16">
            <path
                d="M 141.5625 77.742188 L 250.304688 76.429688 L 251.835938 203.171875 L 143.09375 204.484375 Z M 141.5625 77.742188 "
                clip-rule="nonzero" />
        </clipPath>
        <clipPath id="034a31e917">
            <path
                d="M 142.214844 131.914062 L 142.433594 149.917969 C 142.609375 164.285156 148.480469 177.996094 158.761719 188.03125 C 169.042969 198.066406 182.890625 203.609375 197.257812 203.433594 C 211.625 203.261719 225.335938 197.386719 235.371094 187.105469 C 245.410156 176.824219 250.949219 162.976562 250.777344 148.609375 L 250.558594 130.605469 C 250.386719 116.238281 244.511719 102.527344 234.230469 92.492188 C 223.949219 82.457031 210.101562 76.914062 195.734375 77.089844 C 181.367188 77.261719 167.65625 83.136719 157.621094 93.417969 C 147.582031 103.699219 142.042969 117.546875 142.214844 131.914062 Z M 142.214844 131.914062 "
                clip-rule="nonzero" />
        </clipPath>
        <clipPath id="1af512c435">
            <path
                d="M 141.5625 77.742188 L 249.554688 76.4375 L 251.078125 202.429688 L 143.085938 203.734375 Z M 141.5625 77.742188 "
                clip-rule="nonzero" />
        </clipPath>
        <clipPath id="761742d2e8">
            <path
                d="M 249.894531 76.433594 L 141.902344 77.738281 L 143.425781 203.730469 L 251.417969 202.425781 Z M 249.894531 76.433594 "
                clip-rule="nonzero" />
        </clipPath>
        <clipPath id="22e1f37bcd">
            <path d="M 208 167 L 234 167 L 234 178 L 208 178 Z M 208 167 " clip-rule="nonzero" />
        </clipPath>
        <clipPath id="1abf3116b8">
            <path
                d="M 141.5625 77.742188 L 250.304688 76.429688 L 251.835938 203.171875 L 143.09375 204.484375 Z M 141.5625 77.742188 "
                clip-rule="nonzero" />
        </clipPath>
        <clipPath id="2ec71b6679">
            <path
                d="M 142.214844 131.914062 L 142.433594 149.917969 C 142.609375 164.285156 148.480469 177.996094 158.761719 188.03125 C 169.042969 198.066406 182.890625 203.609375 197.257812 203.433594 C 211.625 203.261719 225.335938 197.386719 235.371094 187.105469 C 245.410156 176.824219 250.949219 162.976562 250.777344 148.609375 L 250.558594 130.605469 C 250.386719 116.238281 244.511719 102.527344 234.230469 92.492188 C 223.949219 82.457031 210.101562 76.914062 195.734375 77.089844 C 181.367188 77.261719 167.65625 83.136719 157.621094 93.417969 C 147.582031 103.699219 142.042969 117.546875 142.214844 131.914062 Z M 142.214844 131.914062 "
                clip-rule="nonzero" />
        </clipPath>
        <clipPath id="0678a69b6c">
            <path
                d="M 141.5625 77.742188 L 249.554688 76.4375 L 251.078125 202.429688 L 143.085938 203.734375 Z M 141.5625 77.742188 "
                clip-rule="nonzero" />
        </clipPath>
        <clipPath id="f03fb00d1d">
            <path
                d="M 249.894531 76.433594 L 141.902344 77.738281 L 143.425781 203.730469 L 251.417969 202.425781 Z M 249.894531 76.433594 "
                clip-rule="nonzero" />
        </clipPath>
        <clipPath id="e726ecd0a5">
            <path d="M 214 154 L 226 154 L 226 171 L 214 171 Z M 214 154 " clip-rule="nonzero" />
        </clipPath>
        <clipPath id="2d95d7106e">
            <path
                d="M 141.5625 77.742188 L 250.304688 76.429688 L 251.835938 203.171875 L 143.09375 204.484375 Z M 141.5625 77.742188 "
                clip-rule="nonzero" />
        </clipPath>
        <clipPath id="0f1e09f2d8">
            <path
                d="M 142.214844 131.914062 L 142.433594 149.917969 C 142.609375 164.285156 148.480469 177.996094 158.761719 188.03125 C 169.042969 198.066406 182.890625 203.609375 197.257812 203.433594 C 211.625 203.261719 225.335938 197.386719 235.371094 187.105469 C 245.410156 176.824219 250.949219 162.976562 250.777344 148.609375 L 250.558594 130.605469 C 250.386719 116.238281 244.511719 102.527344 234.230469 92.492188 C 223.949219 82.457031 210.101562 76.914062 195.734375 77.089844 C 181.367188 77.261719 167.65625 83.136719 157.621094 93.417969 C 147.582031 103.699219 142.042969 117.546875 142.214844 131.914062 Z M 142.214844 131.914062 "
                clip-rule="nonzero" />
        </clipPath>
        <clipPath id="8a77e220e0">
            <path
                d="M 141.5625 77.742188 L 249.554688 76.4375 L 251.078125 202.429688 L 143.085938 203.734375 Z M 141.5625 77.742188 "
                clip-rule="nonzero" />
        </clipPath>
        <clipPath id="7894ed3812">
            <path
                d="M 249.894531 76.433594 L 141.902344 77.738281 L 143.425781 203.730469 L 251.417969 202.425781 Z M 249.894531 76.433594 "
                clip-rule="nonzero" />
        </clipPath>
        <clipPath id="8e3c7cbfa9">
            <path d="M 218 137 L 235 137 L 235 149 L 218 149 Z M 218 137 " clip-rule="nonzero" />
        </clipPath>
        <clipPath id="b75a7b1ead">
            <path
                d="M 141.5625 77.742188 L 250.304688 76.429688 L 251.835938 203.171875 L 143.09375 204.484375 Z M 141.5625 77.742188 "
                clip-rule="nonzero" />
        </clipPath>
        <clipPath id="ceb96e288e">
            <path
                d="M 142.214844 131.914062 L 142.433594 149.917969 C 142.609375 164.285156 148.480469 177.996094 158.761719 188.03125 C 169.042969 198.066406 182.890625 203.609375 197.257812 203.433594 C 211.625 203.261719 225.335938 197.386719 235.371094 187.105469 C 245.410156 176.824219 250.949219 162.976562 250.777344 148.609375 L 250.558594 130.605469 C 250.386719 116.238281 244.511719 102.527344 234.230469 92.492188 C 223.949219 82.457031 210.101562 76.914062 195.734375 77.089844 C 181.367188 77.261719 167.65625 83.136719 157.621094 93.417969 C 147.582031 103.699219 142.042969 117.546875 142.214844 131.914062 Z M 142.214844 131.914062 "
                clip-rule="nonzero" />
        </clipPath>
        <clipPath id="deea7c4193">
            <path
                d="M 141.5625 77.742188 L 249.554688 76.4375 L 251.078125 202.429688 L 143.085938 203.734375 Z M 141.5625 77.742188 "
                clip-rule="nonzero" />
        </clipPath>
        <clipPath id="6ec4df44a0">
            <path
                d="M 249.894531 76.433594 L 141.902344 77.738281 L 143.425781 203.730469 L 251.417969 202.425781 Z M 249.894531 76.433594 "
                clip-rule="nonzero" />
        </clipPath>
        <clipPath id="c81d2e8dc4">
            <path d="M 202 96 L 221 96 L 221 105 L 202 105 Z M 202 96 " clip-rule="nonzero" />
        </clipPath>
        <clipPath id="c9749f0525">
            <path
                d="M 141.5625 77.742188 L 250.304688 76.429688 L 251.835938 203.171875 L 143.09375 204.484375 Z M 141.5625 77.742188 "
                clip-rule="nonzero" />
        </clipPath>
        <clipPath id="e4c2eda907">
            <path
                d="M 142.214844 131.914062 L 142.433594 149.917969 C 142.609375 164.285156 148.480469 177.996094 158.761719 188.03125 C 169.042969 198.066406 182.890625 203.609375 197.257812 203.433594 C 211.625 203.261719 225.335938 197.386719 235.371094 187.105469 C 245.410156 176.824219 250.949219 162.976562 250.777344 148.609375 L 250.558594 130.605469 C 250.386719 116.238281 244.511719 102.527344 234.230469 92.492188 C 223.949219 82.457031 210.101562 76.914062 195.734375 77.089844 C 181.367188 77.261719 167.65625 83.136719 157.621094 93.417969 C 147.582031 103.699219 142.042969 117.546875 142.214844 131.914062 Z M 142.214844 131.914062 "
                clip-rule="nonzero" />
        </clipPath>
        <clipPath id="162e9c1220">
            <path
                d="M 141.5625 77.742188 L 249.554688 76.4375 L 251.078125 202.429688 L 143.085938 203.734375 Z M 141.5625 77.742188 "
                clip-rule="nonzero" />
        </clipPath>
        <clipPath id="10a4a8871c">
            <path
                d="M 249.894531 76.433594 L 141.902344 77.738281 L 143.425781 203.730469 L 251.417969 202.425781 Z M 249.894531 76.433594 "
                clip-rule="nonzero" />
        </clipPath>
        <clipPath id="011998ee4f">
            <path d="M 203 178 L 220 178 L 220 190 L 203 190 Z M 203 178 " clip-rule="nonzero" />
        </clipPath>
        <clipPath id="334fdf65d5">
            <path
                d="M 141.5625 77.742188 L 250.304688 76.429688 L 251.835938 203.171875 L 143.09375 204.484375 Z M 141.5625 77.742188 "
                clip-rule="nonzero" />
        </clipPath>
        <clipPath id="7e9a740fc4">
            <path
                d="M 142.214844 131.914062 L 142.433594 149.917969 C 142.609375 164.285156 148.480469 177.996094 158.761719 188.03125 C 169.042969 198.066406 182.890625 203.609375 197.257812 203.433594 C 211.625 203.261719 225.335938 197.386719 235.371094 187.105469 C 245.410156 176.824219 250.949219 162.976562 250.777344 148.609375 L 250.558594 130.605469 C 250.386719 116.238281 244.511719 102.527344 234.230469 92.492188 C 223.949219 82.457031 210.101562 76.914062 195.734375 77.089844 C 181.367188 77.261719 167.65625 83.136719 157.621094 93.417969 C 147.582031 103.699219 142.042969 117.546875 142.214844 131.914062 Z M 142.214844 131.914062 "
                clip-rule="nonzero" />
        </clipPath>
        <clipPath id="a1cf3bd4e3">
            <path
                d="M 141.5625 77.742188 L 249.554688 76.4375 L 251.078125 202.429688 L 143.085938 203.734375 Z M 141.5625 77.742188 "
                clip-rule="nonzero" />
        </clipPath>
        <clipPath id="5feb7394ec">
            <path
                d="M 249.894531 76.433594 L 141.902344 77.738281 L 143.425781 203.730469 L 251.417969 202.425781 Z M 249.894531 76.433594 "
                clip-rule="nonzero" />
        </clipPath>
        <clipPath id="4b098a0df0">
            <path
                d="M 123.570312 73.984375 L 190.320312 73.984375 L 190.320312 206.734375 L 123.570312 206.734375 Z M 123.570312 73.984375 "
                clip-rule="nonzero" />
        </clipPath>
    </defs>
    <g clip-path="url(#d49f38282f)">
        <g clip-path="url(#4a2c75ce8c)">
            <g clip-path="url(#df47a43566)">
                <g clip-path="url(#4ef5bd980d)">
                    <g clip-path="url(#e393966eb5)">
                        <path fill="#ffffff "
                            d="M 196.042969 107.511719 C 197.949219 107.488281 197.984375 110.390625 196.078125 110.410156 L 183.011719 110.570312 C 182.214844 110.578125 181.554688 109.9375 181.546875 109.136719 L 181.398438 96.894531 C 181.375 94.988281 184.273438 94.953125 184.296875 96.859375 L 184.425781 107.652344 Z M 196.042969 107.511719 "
                            fill-opacity="1" fill-rule="nonzero" />
                    </g>
                </g>
            </g>
        </g>
    </g>
    <g clip-path="url(#788774bf9f)">
        <g clip-path="url(#1b2fee40cb)">
            <g clip-path="url(#3ce01d068c)">
                <g clip-path="url(#941d59674c)">
                    <g clip-path="url(#a1a49a74f8)">
                        <path fill="#ffffff "
                            d="M 182.714844 85.953125 C 181.011719 85.972656 179.476562 86.683594 178.367188 87.816406 L 178.363281 87.816406 C 175.976562 90.257812 176.027344 94.179688 178.46875 96.5625 L 178.46875 96.566406 C 182.40625 100.410156 189.046875 97.550781 188.980469 92.066406 C 188.957031 90.359375 188.246094 88.824219 187.113281 87.71875 L 187.113281 87.710938 C 185.953125 86.601562 184.449219 85.929688 182.714844 85.953125 Z M 182.75 88.851562 C 187.082031 88.796875 187.160156 95.375 182.832031 95.429688 C 178.5 95.480469 178.417969 88.902344 182.75 88.851562 Z M 182.75 88.851562 "
                            fill-opacity="1" fill-rule="nonzero" />
                    </g>
                </g>
            </g>
        </g>
    </g>
    <g clip-path="url(#b82509406b)">
        <g clip-path="url(#769f131ae0)">
            <g clip-path="url(#47a66d65ca)">
                <g clip-path="url(#1b6415c493)">
                    <g clip-path="url(#fc569e3bc7)">
                        <path fill="#ffffff "
                            d="M 196.777344 168.410156 C 198.6875 168.386719 198.722656 171.285156 196.8125 171.308594 L 185.199219 171.449219 L 185.328125 182.242188 C 185.351562 184.152344 182.453125 184.1875 182.429688 182.277344 L 182.28125 170.035156 C 182.273438 169.234375 182.914062 168.578125 183.714844 168.566406 Z M 196.777344 168.410156 "
                            fill-opacity="1" fill-rule="nonzero" />
                    </g>
                </g>
            </g>
        </g>
    </g>
    <g clip-path="url(#e821880454)">
        <g clip-path="url(#c0492ab85f)">
            <g clip-path="url(#147fbd8727)">
                <g clip-path="url(#0b3d9d4a0e)">
                    <g clip-path="url(#d202ddfca2)">
                        <path fill="#ffffff "
                            d="M 183.976562 190.289062 C 179.585938 190.339844 179.605469 183.761719 183.898438 183.710938 C 188.171875 183.660156 188.375 190.234375 183.976562 190.289062 Z M 179.621094 191.425781 C 182.058594 193.804688 185.910156 193.78125 188.363281 191.320312 L 188.363281 191.316406 C 193.839844 185.703125 185.769531 176.910156 179.601562 182.589844 C 179.570312 182.617188 179.539062 182.644531 179.507812 182.675781 L 179.507812 182.683594 C 177.125 185.125 177.171875 189.042969 179.613281 191.425781 Z M 179.621094 191.425781 "
                            fill-opacity="1" fill-rule="nonzero" />
                    </g>
                </g>
            </g>
        </g>
    </g>
    <g clip-path="url(#561e6e8d3f)">
        <g clip-path="url(#7c2e1949eb)">
            <g clip-path="url(#07d648b240)">
                <g clip-path="url(#fdbd522a86)">
                    <g clip-path="url(#005f426637)">
                        <path fill="#ffffff "
                            d="M 170.273438 120.019531 C 168.367188 120.042969 168.332031 117.144531 170.238281 117.121094 L 184.582031 116.949219 C 185.378906 116.9375 186.039062 117.582031 186.046875 118.382812 L 186.132812 125.40625 L 196.257812 125.28125 C 198.167969 125.257812 198.203125 128.160156 196.292969 128.179688 L 184.71875 128.320312 C 183.917969 128.332031 183.261719 127.691406 183.25 126.890625 L 183.167969 119.867188 Z M 170.273438 120.019531 "
                            fill-opacity="1" fill-rule="nonzero" />
                    </g>
                </g>
            </g>
        </g>
    </g>
    <g clip-path="url(#4e29d59560)">
        <g clip-path="url(#0e09c57617)">
            <g clip-path="url(#9ee6a790b1)">
                <g clip-path="url(#e7c4aa7480)">
                    <g clip-path="url(#2f21794f66)">
                        <path fill="#ffffff "
                            d="M 170.808594 164.0625 C 168.898438 164.085938 168.863281 161.1875 170.773438 161.164062 L 183.664062 161.007812 L 183.578125 153.984375 C 183.570312 153.183594 184.210938 152.527344 185.011719 152.519531 L 196.585938 152.378906 C 198.492188 152.355469 198.527344 155.253906 196.621094 155.277344 L 186.496094 155.398438 L 186.578125 162.421875 C 186.589844 163.222656 185.949219 163.878906 185.148438 163.890625 Z M 170.808594 164.0625 "
                            fill-opacity="1" fill-rule="nonzero" />
                    </g>
                </g>
            </g>
        </g>
    </g>
    <g clip-path="url(#fa885d5ba6)">
        <g clip-path="url(#312849899e)">
            <g clip-path="url(#b6515590f9)">
                <g clip-path="url(#8399878449)">
                    <g clip-path="url(#12e36461fd)">
                        <path fill="#ffffff "
                            d="M 165.445312 112.441406 C 163.738281 112.460938 162.203125 113.171875 161.097656 114.304688 L 161.089844 114.304688 C 158.707031 116.75 158.753906 120.667969 161.195312 123.050781 L 161.195312 123.058594 C 165.132812 126.898438 171.773438 124.039062 171.707031 118.554688 C 171.6875 116.851562 170.972656 115.3125 169.839844 114.207031 L 169.839844 114.199219 C 168.636719 113.046875 167.117188 112.421875 165.445312 112.441406 Z M 163.164062 116.328125 C 164.441406 115.019531 166.570312 115.019531 167.816406 116.273438 L 167.820312 116.273438 C 170.917969 119.304688 166.316406 124.003906 163.222656 120.984375 L 163.21875 120.984375 C 161.925781 119.722656 161.890625 117.636719 163.164062 116.332031 Z M 163.164062 116.328125 "
                            fill-opacity="1" fill-rule="nonzero" />
                    </g>
                </g>
            </g>
        </g>
    </g>
    <g clip-path="url(#32e63580cf)">
        <g clip-path="url(#88b74fe5dc)">
            <g clip-path="url(#c703497825)">
                <g clip-path="url(#7740f02e9a)">
                    <g clip-path="url(#03a6b14bdc)">
                        <path fill="#ffffff "
                            d="M 165.976562 156.484375 C 164.273438 156.503906 162.734375 157.214844 161.628906 158.347656 L 161.621094 158.347656 C 159.238281 160.792969 159.285156 164.710938 161.726562 167.09375 L 161.726562 167.097656 C 165.667969 170.945312 172.304688 168.082031 172.238281 162.597656 C 172.21875 160.890625 171.507812 159.355469 170.375 158.25 L 170.375 158.242188 C 169.210938 157.132812 167.707031 156.460938 165.976562 156.484375 Z M 163.695312 160.371094 C 164.972656 159.0625 167.101562 159.0625 168.347656 160.316406 L 168.351562 160.316406 C 171.449219 163.34375 166.847656 168.042969 163.753906 165.023438 L 163.75 165.027344 C 162.457031 163.765625 162.421875 161.679688 163.695312 160.375 Z M 163.695312 160.371094 "
                            fill-opacity="1" fill-rule="nonzero" />
                    </g>
                </g>
            </g>
        </g>
    </g>
    <g clip-path="url(#1943ea2a8e)">
        <g clip-path="url(#064b693461)">
            <g clip-path="url(#699ee58266)">
                <g clip-path="url(#bc60187321)">
                    <g clip-path="url(#1d0f342402)">
                        <path fill="#ffffff "
                            d="M 196.351562 133.152344 C 198.261719 133.128906 198.296875 136.027344 196.386719 136.050781 L 164.605469 136.433594 C 164.277344 136.4375 163.976562 136.335938 163.734375 136.15625 L 152.199219 129.042969 C 150.578125 128.046875 152.09375 125.585938 153.710938 126.582031 L 164.980469 133.53125 Z M 196.351562 133.152344 "
                            fill-opacity="1" fill-rule="nonzero" />
                    </g>
                </g>
            </g>
        </g>
    </g>
    <g clip-path="url(#445f12b464)">
        <g clip-path="url(#66c38ef115)">
            <g clip-path="url(#1ea388d953)">
                <g clip-path="url(#290a09626d)">
                    <g clip-path="url(#f3f0570d72)">
                        <path fill="#ffffff "
                            d="M 196.488281 144.507812 C 198.398438 144.484375 198.433594 147.382812 196.523438 147.40625 L 165.15625 147.785156 L 154.054688 155.007812 C 152.460938 156.039062 150.886719 153.617188 152.484375 152.578125 L 163.84375 145.191406 C 164.082031 145.007812 164.382812 144.894531 164.707031 144.890625 L 196.492188 144.507812 Z M 196.488281 144.507812 "
                            fill-opacity="1" fill-rule="nonzero" />
                    </g>
                </g>
            </g>
        </g>
    </g>
    <g clip-path="url(#df806f419c)">
        <g clip-path="url(#ac25c247fe)">
            <g clip-path="url(#a87794392f)">
                <g clip-path="url(#57a02d63a5)">
                    <g clip-path="url(#e97fcad26e)">
                        <path fill="#ffffff "
                            d="M 148.847656 119.136719 C 147.144531 119.15625 145.605469 119.867188 144.5 121.003906 L 144.492188 121.003906 C 142.109375 123.445312 142.15625 127.363281 144.601562 129.746094 L 144.601562 129.753906 C 148.535156 133.597656 155.175781 130.738281 155.109375 125.25 C 155.089844 123.546875 154.378906 122.007812 153.246094 120.902344 L 153.246094 120.898438 C 152.085938 119.789062 150.582031 119.117188 148.847656 119.136719 Z M 146.566406 123.023438 C 147.84375 121.71875 149.972656 121.714844 151.21875 122.972656 L 151.222656 122.96875 C 154.320312 126 149.71875 130.699219 146.625 127.679688 L 146.621094 127.683594 C 145.332031 126.417969 145.292969 124.335938 146.570312 123.027344 Z M 146.566406 123.023438 "
                            fill-opacity="1" fill-rule="nonzero" />
                    </g>
                </g>
            </g>
        </g>
    </g>
    <g clip-path="url(#20421f4147)">
        <g clip-path="url(#50899495a4)">
            <g clip-path="url(#9328baaafc)">
                <g clip-path="url(#ea9bafa33a)">
                    <g clip-path="url(#106ea67af9)">
                        <path fill="#ffffff "
                            d="M 149.222656 150.191406 C 147.519531 150.210938 145.980469 150.921875 144.875 152.054688 L 144.871094 152.054688 C 142.484375 154.5 142.535156 158.417969 144.976562 160.800781 L 144.976562 160.804688 C 148.914062 164.652344 155.550781 161.789062 155.484375 156.304688 C 155.464844 154.597656 154.753906 153.0625 153.621094 151.957031 L 153.621094 151.949219 C 152.460938 150.839844 150.957031 150.167969 149.222656 150.191406 Z M 146.941406 154.078125 C 148.222656 152.769531 150.347656 152.769531 151.59375 154.023438 L 151.597656 154.023438 C 154.695312 157.050781 150.09375 161.753906 147 158.730469 L 146.996094 158.734375 C 145.707031 157.472656 145.667969 155.386719 146.945312 154.082031 Z M 146.941406 154.078125 "
                            fill-opacity="1" fill-rule="nonzero" />
                    </g>
                </g>
            </g>
        </g>
    </g>
    <g clip-path="url(#d7b7d3f97c)">
        <g clip-path="url(#2c5a7befde)">
            <g clip-path="url(#b3582e1b65)">
                <g clip-path="url(#5a52f9df6b)">
                    <g clip-path="url(#48188662f7)">
                        <path fill="#ffffff "
                            d="M 196.527344 199.382812 C 203.65625 203.328125 212.667969 200.554688 216.34375 193.230469 C 225.859375 195.203125 234.597656 187.359375 233.589844 177.667969 C 245.550781 175.535156 249.648438 160.308594 240.289062 152.464844 C 247.710938 147.71875 249.15625 137.503906 243.394531 130.890625 C 250.445312 122.390625 245.621094 109.398438 234.769531 107.523438 C 234.597656 94.921875 222.804688 85.746094 210.539062 88.636719 C 207.902344 82.160156 202.460938 77.484375 195.679688 77.566406 C 194.882812 77.578125 194.238281 78.234375 194.25 79.035156 L 195.6875 198.085938 C 195.695312 198.660156 196.035156 199.15625 196.523438 199.382812 Z M 200.632812 197.925781 C 199.917969 197.742188 199.230469 197.492188 198.578125 197.1875 L 197.167969 80.546875 C 202.367188 81.175781 206.664062 85.574219 208.261719 90.808594 C 208.496094 91.574219 209.3125 92 210.074219 91.761719 C 221.769531 88.125 232.777344 97.902344 231.847656 108.691406 C 231.605469 111.519531 236.054688 108.886719 240.703125 113.839844 C 245 118.417969 244.871094 125.121094 240.355469 129.921875 C 239.808594 130.503906 239.835938 131.421875 240.417969 131.96875 L 241.414062 130.914062 L 240.421875 131.96875 C 246.835938 138.003906 244.046875 148.242188 237.054688 150.917969 C 235.785156 151.402344 235.796875 152.964844 236.796875 153.542969 L 237.523438 152.289062 L 236.800781 153.542969 C 243.183594 157.234375 244.492188 165.890625 239.503906 171.300781 C 237.589844 173.371094 234.925781 174.738281 231.933594 174.964844 C 230.941406 175.003906 230.332031 175.851562 230.515625 176.71875 L 230.523438 176.714844 C 232.421875 185.59375 223.847656 192.65625 215.988281 190.15625 C 215.261719 189.910156 214.464844 190.277344 214.179688 191 L 215.527344 191.53125 L 214.183594 191.003906 C 212.066406 196.367188 206.261719 199.363281 200.632812 197.925781 Z M 200.632812 197.925781 "
                            fill-opacity="1" fill-rule="nonzero" />
                    </g>
                </g>
            </g>
        </g>
    </g>
    <g clip-path="url(#1d02ce66c8)">
        <g clip-path="url(#11b1a2ea74)">
            <g clip-path="url(#2d787b8d34)">
                <g clip-path="url(#3c4b4f04ee)">
                    <g clip-path="url(#0d91e72797)">
                        <path fill="#ffffff "
                            d="M 194.25 79.035156 C 194.226562 77.125 197.125 77.09375 197.148438 79 L 198.585938 198.050781 C 198.609375 199.960938 195.710938 199.996094 195.6875 198.085938 Z M 194.25 79.035156 "
                            fill-opacity="1" fill-rule="nonzero" />
                    </g>
                </g>
            </g>
        </g>
    </g>
    <g clip-path="url(#0073525118)">
        <g clip-path="url(#d6b69e1efe)">
            <g clip-path="url(#0985cdfdc1)">
                <g clip-path="url(#70ce646cc3)">
                    <g clip-path="url(#085f351507)">
                        <path fill="#ffffff "
                            d="M 231.929688 108.320312 C 232.5625 106.523438 235.289062 107.484375 234.660156 109.28125 C 234.644531 109.328125 229.289062 125.195312 210.792969 114.726562 C 209.136719 113.792969 210.558594 111.273438 212.214844 112.207031 C 227.675781 120.960938 231.917969 108.355469 231.929688 108.320312 Z M 231.929688 108.320312 "
                            fill-opacity="1" fill-rule="nonzero" />
                    </g>
                </g>
            </g>
        </g>
    </g>
    <g clip-path="url(#297d17ac48)">
        <g clip-path="url(#b2c7ec9f16)">
            <g clip-path="url(#034a31e917)">
                <g clip-path="url(#1af512c435)">
                    <g clip-path="url(#761742d2e8)">
                        <path fill="#ffffff "
                            d="M 218.539062 131.164062 C 216.671875 131.550781 216.082031 128.71875 217.949219 128.328125 C 217.972656 128.324219 226.066406 126.746094 224.078125 116.605469 C 223.710938 114.738281 226.546875 114.183594 226.914062 116.050781 C 229.457031 129.027344 218.570312 131.15625 218.539062 131.164062 Z M 218.539062 131.164062 "
                            fill-opacity="1" fill-rule="nonzero" />
                    </g>
                </g>
            </g>
        </g>
    </g>
    <g clip-path="url(#22e1f37bcd)">
        <g clip-path="url(#1abf3116b8)">
            <g clip-path="url(#2ec71b6679)">
                <g clip-path="url(#0678a69b6c)">
                    <g clip-path="url(#f03fb00d1d)">
                        <path fill="#ffffff "
                            d="M 233.285156 175.902344 C 233.964844 177.683594 231.253906 178.710938 230.582031 176.929688 C 230.566406 176.894531 226.023438 164.394531 210.777344 173.519531 C 209.144531 174.492188 207.660156 172.011719 209.296875 171.03125 C 227.535156 160.121094 233.269531 175.855469 233.285156 175.902344 Z M 233.285156 175.902344 "
                            fill-opacity="1" fill-rule="nonzero" />
                    </g>
                </g>
            </g>
        </g>
    </g>
    <g clip-path="url(#e726ecd0a5)">
        <g clip-path="url(#2d95d7106e)">
            <g clip-path="url(#0f1e09f2d8)">
                <g clip-path="url(#8a77e220e0)">
                    <g clip-path="url(#7894ed3812)">
                        <path fill="#ffffff "
                            d="M 216.121094 157.265625 C 214.25 156.921875 214.765625 154.074219 216.640625 154.414062 C 216.671875 154.421875 227.609375 156.285156 225.378906 169.320312 C 225.058594 171.195312 222.210938 170.710938 222.53125 168.835938 C 224.273438 158.648438 216.144531 157.269531 216.121094 157.265625 Z M 216.121094 157.265625 "
                            fill-opacity="1" fill-rule="nonzero" />
                    </g>
                </g>
            </g>
        </g>
    </g>
    <g clip-path="url(#8e3c7cbfa9)">
        <g clip-path="url(#b75a7b1ead)">
            <g clip-path="url(#ceb96e288e)">
                <g clip-path="url(#deea7c4193)">
                    <g clip-path="url(#6ec4df44a0)">
                        <path fill="#ffffff "
                            d="M 233.386719 137.625 C 235.183594 138.226562 234.28125 140.960938 232.464844 140.363281 C 232.445312 140.355469 224.65625 137.679688 221.308594 147.453125 C 220.691406 149.257812 217.953125 148.324219 218.566406 146.523438 C 222.851562 134.007812 233.355469 137.613281 233.386719 137.625 Z M 233.386719 137.625 "
                            fill-opacity="1" fill-rule="nonzero" />
                    </g>
                </g>
            </g>
        </g>
    </g>
    <g clip-path="url(#c81d2e8dc4)">
        <g clip-path="url(#c9749f0525)">
            <g clip-path="url(#e4c2eda907)">
                <g clip-path="url(#162e9c1220)">
                    <g clip-path="url(#10a4a8871c)">
                        <path fill="#ffffff "
                            d="M 202.746094 98.722656 C 201.890625 97.015625 204.480469 95.71875 205.335938 97.421875 C 205.347656 97.441406 208.964844 104.847656 218.246094 100.300781 C 219.953125 99.46875 221.226562 102.066406 219.511719 102.902344 C 207.636719 108.71875 202.761719 98.75 202.746094 98.722656 Z M 202.746094 98.722656 "
                            fill-opacity="1" fill-rule="nonzero" />
                    </g>
                </g>
            </g>
        </g>
    </g>
    <g clip-path="url(#011998ee4f)">
        <g clip-path="url(#334fdf65d5)">
            <g clip-path="url(#7e9a740fc4)">
                <g clip-path="url(#a1cf3bd4e3)">
                    <g clip-path="url(#5feb7394ec)">
                        <path fill="#ffffff "
                            d="M 218.390625 178.667969 C 220.191406 179.269531 219.285156 182.003906 217.472656 181.40625 C 217.449219 181.398438 209.660156 178.722656 206.3125 188.496094 C 205.699219 190.300781 202.960938 189.367188 203.574219 187.566406 C 207.859375 175.050781 218.363281 178.65625 218.390625 178.667969 Z M 218.390625 178.667969 "
                            fill-opacity="1" fill-rule="nonzero" />
                    </g>
                </g>
            </g>
        </g>
    </g>
    <g clip-path="url(#4b098a0df0)">
        <path fill="#ffffff"
            d="M 190.125 206.71875 C 153.183594 206.71875 123.628906 177.164062 123.628906 140.222656 C 123.628906 103.277344 153.183594 73.722656 190.125 73.722656 L 190.125 80.777344 C 157.042969 80.777344 130.679688 107.140625 130.679688 140.222656 C 130.679688 173.300781 157.042969 199.664062 190.125 199.664062 Z M 190.125 206.71875 "
            fill-opacity="1" fill-rule="nonzero" />
    </g>
    <path stroke-linecap="butt" transform="matrix(0.598149, -0.452458, 0.452458, 0.598149, 140.792016, 183.482786)"
        fill="none" stroke-linejoin="miter"
        d="M 0.893763 4.760331 C 8.26205 1.080114 15.62358 1.078026 22.990813 4.763493 " stroke="#ffffff"
        stroke-width="4" stroke-opacity="1" stroke-miterlimit="4" />
    <path stroke-linecap="butt" transform="matrix(0.749767, 0.0186934, -0.0186934, 0.749767, 124.41297, 135.813857)"
        fill="none" stroke-linejoin="miter"
        d="M 0.896512 4.763783 C 8.260086 1.079105 15.626926 1.077782 22.991823 4.759943 " stroke="#ffffff"
        stroke-width="4" stroke-opacity="1" stroke-miterlimit="4" />
    <path stroke-linecap="butt" transform="matrix(0.619913, 0.422146, -0.422146, 0.619913, 149.377509, 86.726135)"
        fill="none" stroke-linejoin="miter"
        d="M 0.893813 4.760719 C 8.261168 1.079594 15.62719 1.079328 22.991879 4.75992 " stroke="#ffffff"
        stroke-width="4" stroke-opacity="1" stroke-miterlimit="4" />
</svg>